# xmcd
#
# Track frame offsets:
# 150
# 18918
# 32687
# 53238
# 71470
# 90356
# 106888
# 121195
# 134918
# 146072
# 160341
#
# Disc length: 2548 seconds
#
# Revision: 0
# Processed by: cddbd v1.4PL0 Copyright (c) Steve Scherf et al.
# Submitted via: Audion 3.0.2 (http://www.panic.com/audion/)
#
DISCID=9209f20b
DTITLE=Moody Alan - Moodswings
DYEAR=1900
DGENRE=
TTITLE0=Pieces
TTITLE1=My Life
TTITLE2=Heading Out
TTITLE3=Might As Well
TTITLE4=Try
TTITLE5=Embrace
TTITLE6=Hidden
TTITLE7=Another Scene
TTITLE8=Jimmy
TTITLE9=Perfect
TTITLE10=Gasoline
EXTD=
EXTT0=
EXTT1=
EXTT2=
EXTT3=
EXTT4=
EXTT5=
EXTT6=
EXTT7=
EXTT8=
EXTT9=
EXTT10=
PLAYORDER=
